<?xml version="1.0" encoding="UTF-8" standalone="no"?>
<!-- Created with Inkscape (http://www.inkscape.org/) -->

<svg
   xmlns:dc="http://purl.org/dc/elements/1.1/"
   xmlns:cc="http://creativecommons.org/ns#"
   xmlns:rdf="http://www.w3.org/1999/02/22-rdf-syntax-ns#"
   xmlns:svg="http://www.w3.org/2000/svg"
   xmlns="http://www.w3.org/2000/svg"
   xmlns:xlink="http://www.w3.org/1999/xlink"
   xmlns:sodipodi="http://sodipodi.sourceforge.net/DTD/sodipodi-0.dtd"
   xmlns:inkscape="http://www.inkscape.org/namespaces/inkscape"
   version="1.0"
   width="24"
   height="24"
   id="svg2408"
   inkscape:version="0.48.3.1 r9886"
   sodipodi:docname="lock.svg">
  <sodipodi:namedview
     pagecolor="#ff0647"
     bordercolor="#666666"
     borderopacity="1"
     objecttolerance="10"
     gridtolerance="10"
     guidetolerance="10"
     inkscape:pageopacity="0.96078431"
     inkscape:pageshadow="2"
     inkscape:window-width="1366"
     inkscape:window-height="718"
     id="namedview134"
     showgrid="false"
     inkscape:zoom="13.524598"
     inkscape:cx="8.6852367"
     inkscape:cy="19.986537"
     inkscape:window-x="0"
     inkscape:window-y="22"
     inkscape:window-maximized="1"
     inkscape:current-layer="svg2408" />
  <defs
     id="defs2410">
    <linearGradient
       x1="45.447727"
       y1="92.539597"
       x2="45.447727"
       y2="7.0165396"
       id="ButtonShadow"
       gradientUnits="userSpaceOnUse"
       gradientTransform="scale(1.0058652,0.994169)">
      <stop
         id="stop3750"
         style="stop-color:#000000;stop-opacity:1"
         offset="0" />
      <stop
         id="stop3752"
         style="stop-color:#000000;stop-opacity:0.58823532"
         offset="1" />
    </linearGradient>
    <linearGradient
       id="linearGradient3737">
      <stop
         id="stop3739"
         style="stop-color:#ffffff;stop-opacity:1"
         offset="0" />
      <stop
         id="stop3741"
         style="stop-color:#ffffff;stop-opacity:0"
         offset="1" />
    </linearGradient>
    <filter
       color-interpolation-filters="sRGB"
       id="filter3174">
      <feGaussianBlur
         id="feGaussianBlur3176"
         stdDeviation="1.71" />
    </filter>
    <linearGradient
       x1="36.357143"
       y1="6"
       x2="36.357143"
       y2="63.893143"
       id="linearGradient3188"
       xlink:href="#linearGradient3737"
       gradientUnits="userSpaceOnUse" />
    <filter
       x="-0.192"
       y="-0.192"
       width="1.3839999"
       height="1.3839999"
       color-interpolation-filters="sRGB"
       id="filter3794">
      <feGaussianBlur
         id="feGaussianBlur3796"
         stdDeviation="5.28" />
    </filter>
    <linearGradient
       x1="48"
       y1="20.220806"
       x2="48"
       y2="138.66119"
       id="linearGradient3613"
       xlink:href="#linearGradient3737"
       gradientUnits="userSpaceOnUse" />
    <radialGradient
       cx="48"
       cy="90.171875"
       r="42"
       fx="48"
       fy="90.171875"
       id="radialGradient3619"
       xlink:href="#linearGradient3737"
       gradientUnits="userSpaceOnUse"
       gradientTransform="matrix(1.1573129,0,0,0.99590774,-7.5510206,0.19713193)" />
    <clipPath
       id="clipPath3613">
      <rect
         width="84"
         height="84"
         rx="6"
         ry="6"
         x="6"
         y="6"
         id="rect3615"
         style="fill:#ffffff;fill-opacity:1;fill-rule:nonzero;stroke:none" />
    </clipPath>
    <linearGradient
       x1="48"
       y1="90"
       x2="48"
       y2="5.9877172"
       id="linearGradient3617"
       xlink:href="#linearGradient4081"
       gradientUnits="userSpaceOnUse" />
    <linearGradient
       x1="45.447727"
       y1="92.539597"
       x2="45.447727"
       y2="7.0165396"
       id="ButtonShadow-0"
       gradientUnits="userSpaceOnUse"
       gradientTransform="matrix(1.0058652,0,0,0.994169,100,0)">
      <stop
         id="stop3750-8"
         style="stop-color:#000000;stop-opacity:1"
         offset="0" />
      <stop
         id="stop3752-5"
         style="stop-color:#000000;stop-opacity:0.58823532"
         offset="1" />
    </linearGradient>
    <linearGradient
       x1="32.251034"
       y1="6.1317081"
       x2="32.251034"
       y2="90.238609"
       id="linearGradient3780"
       xlink:href="#ButtonShadow-0"
       gradientUnits="userSpaceOnUse"
       gradientTransform="matrix(1.0238095,0,0,1.0119048,-1.1428571,-98.071429)" />
    <linearGradient
       x1="32.251034"
       y1="6.1317081"
       x2="32.251034"
       y2="90.238609"
       id="linearGradient3772"
       xlink:href="#ButtonShadow-0"
       gradientUnits="userSpaceOnUse"
       gradientTransform="matrix(1.0238095,0,0,1.0119048,-1.1428571,-98.071429)" />
    <linearGradient
       x1="32.251034"
       y1="6.1317081"
       x2="32.251034"
       y2="90.238609"
       id="linearGradient3725"
       xlink:href="#ButtonShadow-0"
       gradientUnits="userSpaceOnUse"
       gradientTransform="matrix(1.0238095,0,0,1.0119048,-1.1428571,-98.071429)" />
    <linearGradient
       x1="32.251034"
       y1="6.1317081"
       x2="32.251034"
       y2="90.238609"
       id="linearGradient3721"
       xlink:href="#ButtonShadow-0"
       gradientUnits="userSpaceOnUse"
       gradientTransform="translate(0,-97)" />
    <linearGradient
       x1="32.251034"
       y1="6.1317081"
       x2="32.251034"
       y2="90.238609"
       id="linearGradient3026"
       xlink:href="#ButtonShadow-0"
       gradientUnits="userSpaceOnUse"
       gradientTransform="matrix(1.0238095,0,0,1.0119048,-1.1428571,-98.071429)" />
    <linearGradient
       id="linearGradient4081">
      <stop
         id="stop4083"
         style="stop-color:#8c8c8c;stop-opacity:1"
         offset="0" />
      <stop
         id="stop4085"
         style="stop-color:#dcdcdc;stop-opacity:1"
         offset="1" />
    </linearGradient>
    <linearGradient
       id="linearGradient4281-6">
      <stop
         id="stop4283-9"
         style="stop-color:#1e1e1e;stop-opacity:1"
         offset="0" />
      <stop
         id="stop4285-8"
         style="stop-color:#505050;stop-opacity:1"
         offset="1" />
    </linearGradient>
    <linearGradient
       x1="48"
       y1="16"
       x2="48"
       y2="80"
       id="linearGradient4416"
       xlink:href="#linearGradient4281-6"
       gradientUnits="userSpaceOnUse" />
    <clipPath
       id="clipPath4194-1">
      <rect
         width="84"
         height="84"
         rx="6"
         ry="6"
         x="6"
         y="6"
         id="rect4196-1"
         style="fill:#ff00ff;fill-opacity:1;fill-rule:nonzero;stroke:none" />
    </clipPath>
    <linearGradient
       x1="48.233639"
       y1="48.047016"
       x2="126.13924"
       y2="66.232674"
       id="linearGradient4077-0"
       xlink:href="#linearGradient4071-3"
       gradientUnits="userSpaceOnUse" />
    <linearGradient
       id="linearGradient4071-3">
      <stop
         id="stop4073-8"
         style="stop-color:#000000;stop-opacity:1"
         offset="0" />
      <stop
         id="stop4075-4"
         style="stop-color:#000000;stop-opacity:0"
         offset="1" />
    </linearGradient>
    <linearGradient
       x1="48.055065"
       y1="48.031517"
       x2="126.67282"
       y2="62.838562"
       id="linearGradient4069-9"
       xlink:href="#linearGradient4047-2"
       gradientUnits="userSpaceOnUse" />
    <linearGradient
       id="linearGradient4047-2">
      <stop
         id="stop4049-0"
         style="stop-color:#000000;stop-opacity:1"
         offset="0" />
      <stop
         id="stop4051-5"
         style="stop-color:#000000;stop-opacity:0"
         offset="1" />
    </linearGradient>
    <linearGradient
       x1="47.997307"
       y1="48.028725"
       x2="127.05216"
       y2="60.289631"
       id="linearGradient4061-6"
       xlink:href="#linearGradient4047-2"
       gradientUnits="userSpaceOnUse" />
    <linearGradient
       x1="47.99826"
       y1="48.028797"
       x2="127.41583"
       y2="57.664623"
       id="linearGradient4053-2"
       xlink:href="#linearGradient4047-2"
       gradientUnits="userSpaceOnUse" />
    <linearGradient
       x1="48.233643"
       y1="48.04702"
       x2="126.13924"
       y2="66.232674"
       id="linearGradient4145-0"
       xlink:href="#linearGradient4115-2"
       gradientUnits="userSpaceOnUse" />
    <linearGradient
       id="linearGradient4115-2">
      <stop
         id="stop4117-3"
         style="stop-color:#ffffff;stop-opacity:1"
         offset="0" />
      <stop
         id="stop4119-6"
         style="stop-color:#ffffff;stop-opacity:0"
         offset="1" />
    </linearGradient>
    <linearGradient
       x1="48.055069"
       y1="48.031521"
       x2="126.67282"
       y2="62.838566"
       id="linearGradient4137-7"
       xlink:href="#linearGradient4115-2"
       gradientUnits="userSpaceOnUse" />
    <linearGradient
       x1="47.997311"
       y1="48.028728"
       x2="127.05216"
       y2="60.289635"
       id="linearGradient4129-8"
       xlink:href="#linearGradient4115-2"
       gradientUnits="userSpaceOnUse" />
    <linearGradient
       x1="47.998264"
       y1="48.028801"
       x2="127.41583"
       y2="57.664627"
       id="linearGradient4121-6"
       xlink:href="#linearGradient4115-2"
       gradientUnits="userSpaceOnUse" />
    <linearGradient
       x1="48.233639"
       y1="48.047016"
       x2="126.13924"
       y2="66.232674"
       id="linearGradient4089-7"
       xlink:href="#linearGradient4071-3"
       gradientUnits="userSpaceOnUse" />
    <linearGradient
       x1="48.055065"
       y1="48.031517"
       x2="126.67282"
       y2="62.838562"
       id="linearGradient4091-0"
       xlink:href="#linearGradient4047-2"
       gradientUnits="userSpaceOnUse" />
    <linearGradient
       x1="47.997307"
       y1="48.028725"
       x2="127.05216"
       y2="60.289631"
       id="linearGradient4093-5"
       xlink:href="#linearGradient4047-2"
       gradientUnits="userSpaceOnUse" />
    <linearGradient
       x1="47.99826"
       y1="48.028797"
       x2="127.41583"
       y2="57.664623"
       id="linearGradient4095-8"
       xlink:href="#linearGradient4047-2"
       gradientUnits="userSpaceOnUse" />
    <linearGradient
       x1="48.233639"
       y1="48.047016"
       x2="126.13924"
       y2="66.232674"
       id="linearGradient4107-8"
       xlink:href="#linearGradient4071-3"
       gradientUnits="userSpaceOnUse" />
    <linearGradient
       x1="48.055065"
       y1="48.031517"
       x2="126.67282"
       y2="62.838562"
       id="linearGradient4109-3"
       xlink:href="#linearGradient4047-2"
       gradientUnits="userSpaceOnUse" />
    <linearGradient
       x1="47.997307"
       y1="48.028725"
       x2="127.05216"
       y2="60.289631"
       id="linearGradient4111-3"
       xlink:href="#linearGradient4047-2"
       gradientUnits="userSpaceOnUse" />
    <linearGradient
       x1="47.99826"
       y1="48.028797"
       x2="127.41583"
       y2="57.664623"
       id="linearGradient4113-5"
       xlink:href="#linearGradient4047-2"
       gradientUnits="userSpaceOnUse" />
    <linearGradient
       x1="48.233643"
       y1="48.04702"
       x2="126.13924"
       y2="66.232674"
       id="linearGradient4157-8"
       xlink:href="#linearGradient4115-2"
       gradientUnits="userSpaceOnUse" />
    <linearGradient
       x1="48.055069"
       y1="48.031521"
       x2="126.67282"
       y2="62.838566"
       id="linearGradient4159-8"
       xlink:href="#linearGradient4115-2"
       gradientUnits="userSpaceOnUse" />
    <linearGradient
       x1="47.997311"
       y1="48.028728"
       x2="127.05216"
       y2="60.289635"
       id="linearGradient4161-2"
       xlink:href="#linearGradient4115-2"
       gradientUnits="userSpaceOnUse" />
    <linearGradient
       x1="47.998264"
       y1="48.028801"
       x2="127.41583"
       y2="57.664627"
       id="linearGradient4163-3"
       xlink:href="#linearGradient4115-2"
       gradientUnits="userSpaceOnUse" />
    <radialGradient
       cx="48"
       cy="90.171875"
       r="42"
       fx="48"
       fy="90.171875"
       id="radialGradient3619-8"
       xlink:href="#linearGradient3737-6"
       gradientUnits="userSpaceOnUse"
       gradientTransform="matrix(1.1573129,0,0,0.99590774,-7.551021,0.1971319)" />
    <linearGradient
       id="linearGradient3737-6">
      <stop
         id="stop3739-9"
         style="stop-color:#ffffff;stop-opacity:1"
         offset="0" />
      <stop
         id="stop3741-6"
         style="stop-color:#ffffff;stop-opacity:0"
         offset="1" />
    </linearGradient>
    <linearGradient
       x1="36.357143"
       y1="6"
       x2="36.357143"
       y2="63.893143"
       id="linearGradient3047"
       xlink:href="#linearGradient3737-6"
       gradientUnits="userSpaceOnUse" />
    <radialGradient
       cx="48.410488"
       cy="47.59774"
       r="30.640047"
       fx="48.410488"
       fy="47.59774"
       id="radialGradient3814-9"
       xlink:href="#linearGradient3796-9"
       gradientUnits="userSpaceOnUse"
       gradientTransform="matrix(1,0,0,0.98495914,-30,0.71591078)" />
    <linearGradient
       id="linearGradient3796-9">
      <stop
         id="stop3798-4"
         style="stop-color:#ffffff;stop-opacity:0"
         offset="0" />
      <stop
         id="stop3800-9"
         style="stop-color:#ffffff;stop-opacity:1"
         offset="1" />
    </linearGradient>
    <linearGradient
       id="linearGradient3780-6-5">
      <stop
         id="stop3782-4"
         style="stop-color:#000000;stop-opacity:0"
         offset="0" />
      <stop
         id="stop3784-9"
         style="stop-color:#000000;stop-opacity:1"
         offset="1" />
    </linearGradient>
    <radialGradient
       cx="48.265148"
       cy="47.886696"
       r="28.878813"
       fx="48.265148"
       fy="47.886696"
       id="radialGradient5008"
       xlink:href="#linearGradient3780-6-5"
       gradientUnits="userSpaceOnUse"
       gradientTransform="matrix(1,0,0,1.013812,-30,-0.66140908)" />
    <linearGradient
       gradientUnits="userSpaceOnUse"
       xlink:href="#linearGradient4281-6-6"
       id="linearGradient3160"
       y2="80"
       x2="48"
       y1="16"
       x1="48" />
    <linearGradient
       id="linearGradient4281-6-6">
      <stop
         offset="0"
         style="stop-color:#1e1e1e;stop-opacity:1"
         id="stop4283-9-7" />
      <stop
         offset="1"
         style="stop-color:#505050;stop-opacity:1"
         id="stop4285-8-5" />
    </linearGradient>
    <radialGradient
       gradientTransform="matrix(1,0,0,1.013812,-30,-0.66140908)"
       gradientUnits="userSpaceOnUse"
       xlink:href="#linearGradient3780-6-5-0"
       id="radialGradient5008-8"
       fy="47.886696"
       fx="48.265148"
       r="28.878813"
       cy="47.886696"
       cx="48.265148" />
    <linearGradient
       id="linearGradient3780-6-5-0">
      <stop
         offset="0"
         style="stop-color:#000000;stop-opacity:0"
         id="stop3782-4-5" />
      <stop
         offset="1"
         style="stop-color:#000000;stop-opacity:1"
         id="stop3784-9-6" />
    </linearGradient>
    <linearGradient
       id="linearGradient3796-9-3">
      <stop
         offset="0"
         style="stop-color:#ffffff;stop-opacity:0"
         id="stop3798-4-3" />
      <stop
         offset="1"
         style="stop-color:#ffffff;stop-opacity:1"
         id="stop3800-9-0" />
    </linearGradient>
    <radialGradient
       gradientTransform="matrix(1,0,0,0.98495914,-30,0.71591078)"
       gradientUnits="userSpaceOnUse"
       xlink:href="#linearGradient3796-9-3"
       id="radialGradient3814-9-5"
       fy="47.59774"
       fx="48.410488"
       r="30.640047"
       cy="47.59774"
       cx="48.410488" />
    <linearGradient
       gradientUnits="userSpaceOnUse"
       xlink:href="#linearGradient3737-6-3"
       id="linearGradient3047-8"
       y2="63.893143"
       x2="36.357143"
       y1="6"
       x1="36.357143" />
    <linearGradient
       id="linearGradient3737-6-3">
      <stop
         offset="0"
         style="stop-color:#ffffff;stop-opacity:1"
         id="stop3739-9-7" />
      <stop
         offset="1"
         style="stop-color:#ffffff;stop-opacity:0"
         id="stop3741-6-8" />
    </linearGradient>
    <radialGradient
       gradientTransform="matrix(1.1573129,0,0,0.99590774,-7.551021,0.1971319)"
       gradientUnits="userSpaceOnUse"
       xlink:href="#linearGradient3737-6-3"
       id="radialGradient3619-8-2"
       fy="90.171875"
       fx="48"
       r="42"
       cy="90.171875"
       cx="48" />
    <linearGradient
       gradientUnits="userSpaceOnUse"
       xlink:href="#linearGradient4115-2-2"
       id="linearGradient4163-3-3"
       y2="57.664627"
       x2="127.41583"
       y1="48.028801"
       x1="47.998264" />
    <linearGradient
       gradientUnits="userSpaceOnUse"
       xlink:href="#linearGradient4115-2-2"
       id="linearGradient4161-2-1"
       y2="60.289635"
       x2="127.05216"
       y1="48.028728"
       x1="47.997311" />
    <linearGradient
       gradientUnits="userSpaceOnUse"
       xlink:href="#linearGradient4115-2-2"
       id="linearGradient4159-8-3"
       y2="62.838566"
       x2="126.67282"
       y1="48.031521"
       x1="48.055069" />
    <linearGradient
       gradientUnits="userSpaceOnUse"
       xlink:href="#linearGradient4115-2-2"
       id="linearGradient4157-8-0"
       y2="66.232674"
       x2="126.13924"
       y1="48.04702"
       x1="48.233643" />
    <linearGradient
       gradientUnits="userSpaceOnUse"
       xlink:href="#linearGradient4047-2-2"
       id="linearGradient4113-5-7"
       y2="57.664623"
       x2="127.41583"
       y1="48.028797"
       x1="47.99826" />
    <linearGradient
       gradientUnits="userSpaceOnUse"
       xlink:href="#linearGradient4047-2-2"
       id="linearGradient4111-3-3"
       y2="60.289631"
       x2="127.05216"
       y1="48.028725"
       x1="47.997307" />
    <linearGradient
       gradientUnits="userSpaceOnUse"
       xlink:href="#linearGradient4047-2-2"
       id="linearGradient4109-3-9"
       y2="62.838562"
       x2="126.67282"
       y1="48.031517"
       x1="48.055065" />
    <linearGradient
       gradientUnits="userSpaceOnUse"
       xlink:href="#linearGradient4071-3-6"
       id="linearGradient4107-8-1"
       y2="66.232674"
       x2="126.13924"
       y1="48.047016"
       x1="48.233639" />
    <linearGradient
       gradientUnits="userSpaceOnUse"
       xlink:href="#linearGradient4047-2-2"
       id="linearGradient4095-8-3"
       y2="57.664623"
       x2="127.41583"
       y1="48.028797"
       x1="47.99826" />
    <linearGradient
       gradientUnits="userSpaceOnUse"
       xlink:href="#linearGradient4047-2-2"
       id="linearGradient4093-5-4"
       y2="60.289631"
       x2="127.05216"
       y1="48.028725"
       x1="47.997307" />
    <linearGradient
       gradientUnits="userSpaceOnUse"
       xlink:href="#linearGradient4047-2-2"
       id="linearGradient4091-0-0"
       y2="62.838562"
       x2="126.67282"
       y1="48.031517"
       x1="48.055065" />
    <linearGradient
       gradientUnits="userSpaceOnUse"
       xlink:href="#linearGradient4071-3-6"
       id="linearGradient4089-7-9"
       y2="66.232674"
       x2="126.13924"
       y1="48.047016"
       x1="48.233639" />
    <linearGradient
       gradientUnits="userSpaceOnUse"
       xlink:href="#linearGradient4115-2-2"
       id="linearGradient4121-6-8"
       y2="57.664627"
       x2="127.41583"
       y1="48.028801"
       x1="47.998264" />
    <linearGradient
       gradientUnits="userSpaceOnUse"
       xlink:href="#linearGradient4115-2-2"
       id="linearGradient4129-8-5"
       y2="60.289635"
       x2="127.05216"
       y1="48.028728"
       x1="47.997311" />
    <linearGradient
       gradientUnits="userSpaceOnUse"
       xlink:href="#linearGradient4115-2-2"
       id="linearGradient4137-7-7"
       y2="62.838566"
       x2="126.67282"
       y1="48.031521"
       x1="48.055069" />
    <linearGradient
       id="linearGradient4115-2-2">
      <stop
         offset="0"
         style="stop-color:#ffffff;stop-opacity:1"
         id="stop4117-3-0" />
      <stop
         offset="1"
         style="stop-color:#ffffff;stop-opacity:0"
         id="stop4119-6-7" />
    </linearGradient>
    <linearGradient
       gradientUnits="userSpaceOnUse"
       xlink:href="#linearGradient4115-2-2"
       id="linearGradient4145-0-6"
       y2="66.232674"
       x2="126.13924"
       y1="48.04702"
       x1="48.233643" />
    <linearGradient
       gradientUnits="userSpaceOnUse"
       xlink:href="#linearGradient4047-2-2"
       id="linearGradient4053-2-6"
       y2="57.664623"
       x2="127.41583"
       y1="48.028797"
       x1="47.99826" />
    <linearGradient
       gradientUnits="userSpaceOnUse"
       xlink:href="#linearGradient4047-2-2"
       id="linearGradient4061-6-2"
       y2="60.289631"
       x2="127.05216"
       y1="48.028725"
       x1="47.997307" />
    <linearGradient
       id="linearGradient4047-2-2">
      <stop
         offset="0"
         style="stop-color:#000000;stop-opacity:1"
         id="stop4049-0-5" />
      <stop
         offset="1"
         style="stop-color:#000000;stop-opacity:0"
         id="stop4051-5-4" />
    </linearGradient>
    <linearGradient
       gradientUnits="userSpaceOnUse"
       xlink:href="#linearGradient4047-2-2"
       id="linearGradient4069-9-5"
       y2="62.838562"
       x2="126.67282"
       y1="48.031517"
       x1="48.055065" />
    <linearGradient
       id="linearGradient4071-3-6">
      <stop
         offset="0"
         style="stop-color:#000000;stop-opacity:1"
         id="stop4073-8-3" />
      <stop
         offset="1"
         style="stop-color:#000000;stop-opacity:0"
         id="stop4075-4-6" />
    </linearGradient>
    <linearGradient
       gradientUnits="userSpaceOnUse"
       xlink:href="#linearGradient4071-3-6"
       id="linearGradient4077-0-2"
       y2="66.232674"
       x2="126.13924"
       y1="48.047016"
       x1="48.233639" />
    <clipPath
       id="clipPath4194-1-6">
      <rect
         style="fill:#ff00ff;fill-opacity:1;fill-rule:nonzero;stroke:none"
         id="rect4196-1-1"
         y="6"
         x="6"
         ry="6"
         rx="6"
         height="84"
         width="84" />
    </clipPath>
    <linearGradient
       id="linearGradient4081-0">
      <stop
         offset="0"
         style="stop-color:#8c8c8c;stop-opacity:1"
         id="stop4083-4" />
      <stop
         offset="1"
         style="stop-color:#dcdcdc;stop-opacity:1"
         id="stop4085-2" />
    </linearGradient>
    <linearGradient
       gradientTransform="matrix(1.0238095,0,0,1.0119048,-1.1428571,-98.071429)"
       gradientUnits="userSpaceOnUse"
       xlink:href="#ButtonShadow-0-5"
       id="linearGradient3026-9"
       y2="90.238609"
       x2="32.251034"
       y1="6.1317081"
       x1="32.251034" />
    <linearGradient
       gradientTransform="translate(0,-97)"
       gradientUnits="userSpaceOnUse"
       xlink:href="#ButtonShadow-0-5"
       id="linearGradient3721-4"
       y2="90.238609"
       x2="32.251034"
       y1="6.1317081"
       x1="32.251034" />
    <linearGradient
       gradientTransform="matrix(1.0238095,0,0,1.0119048,-1.1428571,-98.071429)"
       gradientUnits="userSpaceOnUse"
       xlink:href="#ButtonShadow-0-5"
       id="linearGradient3725-0"
       y2="90.238609"
       x2="32.251034"
       y1="6.1317081"
       x1="32.251034" />
    <linearGradient
       gradientTransform="matrix(1.0238095,0,0,1.0119048,-1.1428571,-98.071429)"
       gradientUnits="userSpaceOnUse"
       xlink:href="#ButtonShadow-0-5"
       id="linearGradient3772-4"
       y2="90.238609"
       x2="32.251034"
       y1="6.1317081"
       x1="32.251034" />
    <linearGradient
       gradientTransform="matrix(1.0238095,0,0,1.0119048,-1.1428571,-98.071429)"
       gradientUnits="userSpaceOnUse"
       xlink:href="#ButtonShadow-0-5"
       id="linearGradient3780-8"
       y2="90.238609"
       x2="32.251034"
       y1="6.1317081"
       x1="32.251034" />
    <linearGradient
       gradientTransform="matrix(1.0058652,0,0,0.994169,100,0)"
       gradientUnits="userSpaceOnUse"
       id="ButtonShadow-0-5"
       y2="7.0165396"
       x2="45.447727"
       y1="92.539597"
       x1="45.447727">
      <stop
         offset="0"
         style="stop-color:#000000;stop-opacity:1"
         id="stop3750-8-4" />
      <stop
         offset="1"
         style="stop-color:#000000;stop-opacity:0.58823532"
         id="stop3752-5-1" />
    </linearGradient>
    <linearGradient
       gradientUnits="userSpaceOnUse"
       xlink:href="#linearGradient4081-0"
       id="linearGradient3617-0"
       y2="5.9877172"
       x2="48"
       y1="90"
       x1="48" />
    <clipPath
       id="clipPath3613-3">
      <rect
         style="fill:#ffffff;fill-opacity:1;fill-rule:nonzero;stroke:none"
         id="rect3615-1"
         y="6"
         x="6"
         ry="6"
         rx="6"
         height="84"
         width="84" />
    </clipPath>
    <radialGradient
       gradientTransform="matrix(1.1573129,0,0,0.99590774,-7.5510206,0.19713193)"
       gradientUnits="userSpaceOnUse"
       xlink:href="#linearGradient3737-9"
       id="radialGradient3619-5"
       fy="90.171875"
       fx="48"
       r="42"
       cy="90.171875"
       cx="48" />
    <linearGradient
       gradientUnits="userSpaceOnUse"
       xlink:href="#linearGradient3737-9"
       id="linearGradient3613-9"
       y2="138.66119"
       x2="48"
       y1="20.220806"
       x1="48" />
    <filter
       id="filter3794-8"
       color-interpolation-filters="sRGB"
       height="1.3839999"
       width="1.3839999"
       y="-0.192"
       x="-0.192">
      <feGaussianBlur
         stdDeviation="5.28"
         id="feGaussianBlur3796-4" />
    </filter>
    <linearGradient
       gradientUnits="userSpaceOnUse"
       xlink:href="#linearGradient3737-9"
       id="linearGradient3188-1"
       y2="63.893143"
       x2="36.357143"
       y1="6"
       x1="36.357143" />
    <filter
       id="filter3174-8"
       color-interpolation-filters="sRGB">
      <feGaussianBlur
         stdDeviation="1.71"
         id="feGaussianBlur3176-9" />
    </filter>
    <linearGradient
       id="linearGradient3737-9">
      <stop
         offset="0"
         style="stop-color:#ffffff;stop-opacity:1"
         id="stop3739-7" />
      <stop
         offset="1"
         style="stop-color:#ffffff;stop-opacity:0"
         id="stop3741-9" />
    </linearGradient>
    <linearGradient
       gradientTransform="scale(1.0058652,0.994169)"
       gradientUnits="userSpaceOnUse"
       id="ButtonShadow-2"
       y2="7.0165396"
       x2="45.447727"
       y1="92.539597"
       x1="45.447727">
      <stop
         offset="0"
         style="stop-color:#000000;stop-opacity:1"
         id="stop3750-4" />
      <stop
         offset="1"
         style="stop-color:#000000;stop-opacity:0.58823532"
         id="stop3752-7" />
    </linearGradient>
    <linearGradient
       inkscape:collect="always"
       xlink:href="#linearGradient3737-9"
       id="linearGradient3272"
       gradientUnits="userSpaceOnUse"
       x1="36.357143"
       y1="6"
       x2="36.357143"
       y2="63.893143"
       gradientTransform="matrix(0.25468165,0,0,0.25468165,-0.20829196,-0.59532393)" />
    <radialGradient
       inkscape:collect="always"
       xlink:href="#linearGradient3737-9"
       id="radialGradient3275"
       gradientUnits="userSpaceOnUse"
       gradientTransform="matrix(0.29474636,0,0,0.25363943,-2.1313983,-0.54511804)"
       cx="48"
       cy="90.171875"
       fx="48"
       fy="90.171875"
       r="42" />
    <linearGradient
       inkscape:collect="always"
       xlink:href="#linearGradient3737-9"
       id="linearGradient3350"
       gradientUnits="userSpaceOnUse"
       x1="48"
       y1="20.220806"
       x2="48"
       y2="138.66119" />
    <linearGradient
       inkscape:collect="always"
       xlink:href="#ButtonShadow-2"
       id="linearGradient3384"
       gradientUnits="userSpaceOnUse"
       gradientTransform="scale(1.0058652,0.994169)"
       x1="45.447727"
       y1="92.539597"
       x2="45.447727"
       y2="7.0165396" />
  </defs>
  <metadata
     id="metadata2413">
    <rdf:RDF>
      <cc:Work
         rdf:about="">
        <dc:format>image/svg+xml</dc:format>
        <dc:type
           rdf:resource="http://purl.org/dc/dcmitype/StillImage" />
        <dc:title />
      </cc:Work>
    </rdf:RDF>
  </metadata>
  <g
     id="layer2"
     style="display:none"
     transform="translate(0,-72)">
    <rect
       width="86"
       height="85"
       rx="6"
       ry="6"
       x="5"
       y="7"
       id="rect3745"
       style="opacity:0.9;fill:url(#ButtonShadow);fill-opacity:1;fill-rule:nonzero;stroke:none;filter:url(#filter3174)" />
  </g>
  <rect
     style="opacity:0.9;fill:url(#linearGradient3384);fill-opacity:1;fill-rule:nonzero;stroke:none;display:none;filter:url(#filter3174-8)"
     id="rect3745-5"
     y="7"
     x="5"
     ry="6"
     rx="6"
     height="85"
     width="86"
     transform="matrix(0.25468165,0,0,0.25468165,-0.20829196,-0.59532393)" />
  <path
     style="opacity:0.90000000000000002;fill:#ffffff;fill-opacity:1;stroke:none;display:inline;filter:url(#filter4022)"
     id="path3122"
     inkscape:connector-curvature="0"
     d="m 35.956502,5.2782716 c -1.777346,0.6311742 -3.056179,2.3207387 -3.056179,4.3136705 0,2.5305169 2.053752,4.5842699 4.584269,4.5842699 2.530517,0 4.58427,-2.053753 4.58427,-4.5842699 0,-1.9929318 -1.278833,-3.6824963 -3.05618,-4.3136705 l 0,1.0983146 c 1.202744,0.5729604 2.037453,1.79438 2.037453,3.2153559 0,1.9691949 -1.596347,3.5655429 -3.565543,3.5655429 -1.969196,0 -3.565543,-1.596348 -3.565543,-3.5655429 0,-1.4209759 0.834709,-2.6423955 2.037453,-3.2153559 l 0,-1.0983146 z m 1.018727,-1.0346442 0,3.5655431 1.018727,0 0,-3.5655431 -1.018727,0 z" />
  <path
     style="opacity:0.25;fill:url(#radialGradient3275);fill-opacity:1;fill-rule:nonzero;stroke:none;display:none"
     id="path3615"
     inkscape:connector-curvature="0"
     d="m 2.8478878,22.326025 c -0.8465618,0 -1.5280899,-0.681529 -1.5280899,-1.52809 l 0,-0.509364 0,-17.3183518 0,-0.5093633 c 0,-0.085247 0.010531,-0.1657214 0.023876,-0.2467229 0.012403,-0.075283 0.024714,-0.1520233 0.047753,-0.2228464 0.00252,-0.00774 0.00532,-0.016198 0.00796,-0.023876 0.025179,-0.07329 0.05982,-0.139426 0.095506,-0.2069289 0.036825,-0.069657 0.080382,-0.1364113 0.1273408,-0.19897 0.046959,-0.062559 0.095194,-0.1205846 0.1512172,-0.1750936 0.1120465,-0.109018 0.2401419,-0.2074449 0.3820225,-0.2785581 0.07094,-0.035557 0.1460531,-0.062893 0.2228464,-0.087547 -0.06525,0.025525 -0.1239563,0.060174 -0.1830524,0.095506 -0.00189,0.00112 -0.00608,-0.00115 -0.00796,0 -0.00813,0.00492 -0.015865,0.010827 -0.023876,0.015918 -0.030662,0.019534 -0.058837,0.041644 -0.087547,0.06367 -0.02704,0.020578 -0.054319,0.041032 -0.079588,0.06367 -0.045315,0.041114 -0.088492,0.087964 -0.1273409,0.1352997 -0.027398,0.033174 -0.055621,0.067563 -0.079588,0.1034644 -0.00639,0.00977 -0.00979,0.021869 -0.015918,0.031835 -0.016494,0.02624 -0.033166,0.052087 -0.047753,0.079588 -0.025725,0.049588 -0.052382,0.1058714 -0.071629,0.159176 -0.00203,0.00555 -0.00601,0.010327 -0.00796,0.015918 -0.00811,0.023418 -0.00912,0.047583 -0.015918,0.071629 -0.00773,0.027154 -0.017927,0.051708 -0.023876,0.079588 -0.018561,0.086977 -0.031835,0.17782 -0.031835,0.2705992 l 0,0.5093633 0,17.3183525 0,0.509363 c 0,0.708486 0.5649225,1.273408 1.2734082,1.273408 l 0.5093633,0 17.3183519,0 0.509364,0 c 0.708485,0 1.273408,-0.564922 1.273408,-1.273408 l 0,-0.509363 0,-17.3183525 0,-0.5093633 c 0,-0.092779 -0.01327,-0.1836224 -0.03184,-0.2705992 -0.01124,-0.052692 -0.02251,-0.1012762 -0.03979,-0.1512173 -0.002,-0.00559 -0.0059,-0.010363 -0.008,-0.015918 -0.01598,-0.044248 -0.03524,-0.093583 -0.05571,-0.1352996 -0.01059,-0.021088 -0.02013,-0.043284 -0.03184,-0.06367 -0.01391,-0.024758 -0.03229,-0.047969 -0.04775,-0.071629 -0.02397,-0.035901 -0.05219,-0.070291 -0.07959,-0.1034644 -0.03646,-0.044429 -0.0772,-0.088374 -0.119382,-0.1273409 -0.0028,-0.0026 -0.0051,-0.00539 -0.008,-0.00796 -0.03524,-0.031977 -0.07261,-0.059707 -0.111423,-0.087547 -0.02612,-0.01863 -0.05204,-0.039059 -0.07959,-0.055712 -0.0019,-0.00115 -0.0061,0.00112 -0.008,0 -0.0591,-0.035332 -0.117802,-0.069981 -0.183052,-0.095506 0.07679,0.024653 0.151906,0.05199 0.222846,0.087547 0.141881,0.071113 0.269976,0.1695401 0.382023,0.2785581 0.05602,0.054509 0.104258,0.1125349 0.151217,0.1750936 0.04696,0.062559 0.09052,0.1293128 0.127341,0.19897 0.03569,0.067503 0.07033,0.1336389 0.09551,0.2069289 0.0027,0.00784 0.0054,0.015979 0.008,0.023876 0.02304,0.070823 0.03535,0.1475635 0.04775,0.2228464 0.01335,0.081002 0.02388,0.1614756 0.02388,0.2467229 l 0,0.5093633 0,17.3183518 0,0.509364 c 0,0.846561 -0.681529,1.52809 -1.52809,1.52809 l -18.3370792,0 z" />
  <path
     style="opacity:0.5;fill:url(#linearGradient3272);fill-opacity:1;fill-rule:nonzero;stroke:none;display:none"
     id="rect3728"
     inkscape:connector-curvature="0"
     d="m 2.8478878,0.93276597 c -0.8465618,0 -1.5280899,0.68152813 -1.5280899,1.52808993 l 0,0.5093633 0,17.3183518 0,0.509364 c 0,0.08525 0.010531,0.165721 0.023876,0.246723 0.012403,0.07528 0.024714,0.152023 0.047753,0.222846 0.00252,0.0077 0.00532,0.0162 0.00796,0.02388 0.025178,0.07329 0.05982,0.139426 0.095506,0.206929 0.036825,0.06966 0.080382,0.136412 0.1273408,0.19897 0.046959,0.06256 0.095194,0.120585 0.1512172,0.175094 0.1120465,0.109018 0.2401419,0.207445 0.3820225,0.278558 0.07094,0.03556 0.1460531,0.06289 0.2228464,0.08755 -0.06525,-0.02553 -0.1239563,-0.06017 -0.1830524,-0.09551 -0.00188,-0.0011 -0.00608,0.0011 -0.00796,0 -0.00813,-0.0049 -0.015864,-0.01083 -0.023876,-0.01592 -0.030662,-0.01953 -0.058837,-0.04164 -0.087547,-0.06367 -0.02704,-0.02058 -0.054319,-0.04103 -0.079588,-0.06367 -0.045315,-0.04111 -0.088492,-0.08796 -0.1273409,-0.1353 -0.027398,-0.03317 -0.055621,-0.06756 -0.079588,-0.103464 -0.00639,-0.0098 -0.00979,-0.02187 -0.015918,-0.03184 -0.016493,-0.02624 -0.033167,-0.05209 -0.047753,-0.07959 -0.025725,-0.04959 -0.052382,-0.105871 -0.071629,-0.159176 -0.00204,-0.0056 -0.00601,-0.01033 -0.00796,-0.01592 -0.00811,-0.02342 -0.00912,-0.04758 -0.015918,-0.07163 -0.00772,-0.02715 -0.017927,-0.05171 -0.023876,-0.07959 -0.018561,-0.08698 -0.031835,-0.17782 -0.031835,-0.2706 l 0,-0.509363 0,-17.3183522 0,-0.5093633 c 0,-0.7084856 0.5649226,-1.2734082 1.2734082,-1.2734082 l 0.5093633,0 17.3183519,0 0.509364,0 c 0.708486,0 1.273408,0.5649226 1.273408,1.2734082 l 0,0.5093633 0,17.3183522 0,0.509363 c 0,0.09278 -0.01327,0.183623 -0.03184,0.2706 -0.01126,0.05269 -0.02251,0.101276 -0.03979,0.151217 -0.002,0.0056 -0.0059,0.01036 -0.0079,0.01592 -0.01597,0.04425 -0.03524,0.09358 -0.05571,0.1353 -0.01059,0.02109 -0.02012,0.04328 -0.03183,0.06367 -0.01391,0.02476 -0.03229,0.04797 -0.04775,0.07163 -0.02397,0.0359 -0.05219,0.07029 -0.07959,0.103464 -0.03646,0.04443 -0.0772,0.08837 -0.119382,0.127341 -0.0029,0.0026 -0.0051,0.0054 -0.0079,0.008 -0.03525,0.03198 -0.07261,0.05971 -0.111423,0.08755 -0.02612,0.01863 -0.05204,0.03906 -0.07959,0.05571 -0.0018,0.0011 -0.0061,-0.0011 -0.0079,0 -0.0591,0.03533 -0.117803,0.06998 -0.183053,0.09551 0.07679,-0.02465 0.151908,-0.05199 0.222847,-0.08755 0.14188,-0.07111 0.269975,-0.16954 0.382022,-0.278558 0.05602,-0.05451 0.104259,-0.112535 0.151217,-0.175094 0.04696,-0.06256 0.09052,-0.129313 0.127341,-0.19897 0.03569,-0.0675 0.07033,-0.133639 0.09551,-0.206929 0.0026,-0.0078 0.0054,-0.01598 0.0079,-0.02388 0.02305,-0.07082 0.03535,-0.147564 0.04775,-0.222846 0.01332,-0.081 0.02385,-0.161476 0.02385,-0.246723 l 0,-0.509364 0,-17.3183518 0,-0.5093633 c 0,-0.8465618 -0.681529,-1.52808993 -1.52809,-1.52808993 l -18.3370792,0 z" />
  <rect
     style="color:#000000;fill:#ffffff;fill-opacity:1;fill-rule:nonzero;stroke:none;stroke-width:2;marker:none;visibility:visible;display:inline;overflow:visible;enable-background:accumulate"
     id="rect3137"
     y="-11.291953"
     x="7.9415207"
     ry="1.0187266"
     rx="1.0187266"
     height="6.6217227"
     width="8.1498127" />
  <rect
     style="color:#000000;fill:none;stroke:#ffffff;stroke-width:1.01872659000000021;stroke-miterlimit:4;stroke-dasharray:none;marker:none;visibility:visible;display:inline;overflow:visible;enable-background:accumulate;stroke-opacity:1"
     id="rect3907"
     y="-15.366859"
     x="9.9789743"
     ry="1.0187266"
     rx="1.0187266"
     height="6.1123595"
     width="4.0749063" />
  <path
     style="color:#000000;fill:#ffffff;fill-opacity:1;stroke:none;stroke-width:6;marker:none;visibility:visible;display:inline;overflow:visible;enable-background:accumulate"
     id="rect4223-9"
     inkscape:connector-curvature="0"
     d="m 15.735981,4.1276301 c -0.999761,0.00511 -1.583179,1.3333685 -0.913852,2.0760333 0.684933,0.5829527 1.540451,0.9861248 2.085967,1.7383053 1.877903,2.1627103 1.964134,5.6060053 0.208595,7.8670723 -0.55454,0.775251 -1.318539,1.3674 -2.125698,1.857503 -0.799343,0.602009 -0.474752,2.009395 0.506592,2.205166 0.813071,0.190976 1.450733,-0.474946 2.0661,-0.893987 2.736849,-2.124151 3.997298,-5.932493 3.049485,-9.2676492 -0.619388,-2.3252249 -2.222124,-4.4098448 -4.370597,-5.5129115 -0.16229,-0.057773 -0.334701,-0.08082 -0.506592,-0.069533 z m -7.6286771,0.00993 C 7.4111026,4.2523127 6.8627533,4.7830909 6.3093995,5.1904797 3.7100695,7.3104986 2.5392215,10.972067 3.4089129,14.2098 c 0.5988207,2.369918 2.2073114,4.502391 4.3904626,5.622177 0.922947,0.378659 1.9885107,-0.607344 1.6588397,-1.559509 C 9.1690531,17.393573 8.0929557,17.23805 7.5609793,16.544096 5.5080498,14.603821 5.0580698,11.252901 6.5179962,8.8359544 7.1053344,7.7857036 8.0282581,6.9724189 9.0509555,6.3625942 9.8352962,5.7411653 9.4805472,4.3390096 8.4946977,4.1673627 8.3685903,4.1388665 8.2361414,4.1268395 8.1073039,4.1375633 z m 1.3707783,6.6055589 c -0.7043815,0 -1.2714466,0.567065 -1.2714466,1.271445 0,0.704382 0.5670651,1.271447 1.2714466,1.271447 l 5.0857838,0 c 0.704381,0 1.271446,-0.567065 1.271446,-1.271447 0,-0.70438 -0.567065,-1.271445 -1.271446,-1.271445 l -5.0857838,0 z" />
</svg>
