<?xml version="1.0" encoding="UTF-8" standalone="no"?>
<!-- Created with Inkscape (http://www.inkscape.org/) -->

<svg
   xmlns:dc="http://purl.org/dc/elements/1.1/"
   xmlns:cc="http://creativecommons.org/ns#"
   xmlns:rdf="http://www.w3.org/1999/02/22-rdf-syntax-ns#"
   xmlns:svg="http://www.w3.org/2000/svg"
   xmlns="http://www.w3.org/2000/svg"
   xmlns:xlink="http://www.w3.org/1999/xlink"
   xmlns:sodipodi="http://sodipodi.sourceforge.net/DTD/sodipodi-0.dtd"
   xmlns:inkscape="http://www.inkscape.org/namespaces/inkscape"
   version="1.0"
   width="24"
   height="24"
   id="svg2408"
   inkscape:version="0.48.3.1 r9886"
   sodipodi:docname="shutdown.svg">
  <sodipodi:namedview
     pagecolor="#641bff"
     bordercolor="#666666"
     borderopacity="1"
     objecttolerance="10"
     gridtolerance="10"
     guidetolerance="10"
     inkscape:pageopacity="0.89411765"
     inkscape:pageshadow="2"
     inkscape:window-width="1366"
     inkscape:window-height="718"
     id="namedview134"
     showgrid="false"
     inkscape:zoom="5.8641043"
     inkscape:cx="-34.923063"
     inkscape:cy="19.986537"
     inkscape:window-x="0"
     inkscape:window-y="22"
     inkscape:window-maximized="1"
     inkscape:current-layer="svg2408" />
  <defs
     id="defs2410">
    <linearGradient
       x1="45.447727"
       y1="92.539597"
       x2="45.447727"
       y2="7.0165396"
       id="ButtonShadow"
       gradientUnits="userSpaceOnUse"
       gradientTransform="scale(1.0058652,0.994169)">
      <stop
         id="stop3750"
         style="stop-color:#000000;stop-opacity:1"
         offset="0" />
      <stop
         id="stop3752"
         style="stop-color:#000000;stop-opacity:0.58823532"
         offset="1" />
    </linearGradient>
    <linearGradient
       id="linearGradient3737">
      <stop
         id="stop3739"
         style="stop-color:#ffffff;stop-opacity:1"
         offset="0" />
      <stop
         id="stop3741"
         style="stop-color:#ffffff;stop-opacity:0"
         offset="1" />
    </linearGradient>
    <filter
       color-interpolation-filters="sRGB"
       id="filter3174">
      <feGaussianBlur
         id="feGaussianBlur3176"
         stdDeviation="1.71" />
    </filter>
    <linearGradient
       x1="36.357143"
       y1="6"
       x2="36.357143"
       y2="63.893143"
       id="linearGradient3188"
       xlink:href="#linearGradient3737"
       gradientUnits="userSpaceOnUse" />
    <filter
       x="-0.192"
       y="-0.192"
       width="1.3839999"
       height="1.3839999"
       color-interpolation-filters="sRGB"
       id="filter3794">
      <feGaussianBlur
         id="feGaussianBlur3796"
         stdDeviation="5.28" />
    </filter>
    <linearGradient
       x1="48"
       y1="20.220806"
       x2="48"
       y2="138.66119"
       id="linearGradient3613"
       xlink:href="#linearGradient3737"
       gradientUnits="userSpaceOnUse" />
    <radialGradient
       cx="48"
       cy="90.171875"
       r="42"
       fx="48"
       fy="90.171875"
       id="radialGradient3619"
       xlink:href="#linearGradient3737"
       gradientUnits="userSpaceOnUse"
       gradientTransform="matrix(1.1573129,0,0,0.99590774,-7.5510206,0.19713193)" />
    <clipPath
       id="clipPath3613">
      <rect
         width="84"
         height="84"
         rx="6"
         ry="6"
         x="6"
         y="6"
         id="rect3615"
         style="fill:#ffffff;fill-opacity:1;fill-rule:nonzero;stroke:none" />
    </clipPath>
    <linearGradient
       x1="48"
       y1="90"
       x2="48"
       y2="5.9877172"
       id="linearGradient3617"
       xlink:href="#linearGradient4081"
       gradientUnits="userSpaceOnUse" />
    <linearGradient
       x1="45.447727"
       y1="92.539597"
       x2="45.447727"
       y2="7.0165396"
       id="ButtonShadow-0"
       gradientUnits="userSpaceOnUse"
       gradientTransform="matrix(1.0058652,0,0,0.994169,100,0)">
      <stop
         id="stop3750-8"
         style="stop-color:#000000;stop-opacity:1"
         offset="0" />
      <stop
         id="stop3752-5"
         style="stop-color:#000000;stop-opacity:0.58823532"
         offset="1" />
    </linearGradient>
    <linearGradient
       x1="32.251034"
       y1="6.1317081"
       x2="32.251034"
       y2="90.238609"
       id="linearGradient3780"
       xlink:href="#ButtonShadow-0"
       gradientUnits="userSpaceOnUse"
       gradientTransform="matrix(1.0238095,0,0,1.0119048,-1.1428571,-98.071429)" />
    <linearGradient
       x1="32.251034"
       y1="6.1317081"
       x2="32.251034"
       y2="90.238609"
       id="linearGradient3772"
       xlink:href="#ButtonShadow-0"
       gradientUnits="userSpaceOnUse"
       gradientTransform="matrix(1.0238095,0,0,1.0119048,-1.1428571,-98.071429)" />
    <linearGradient
       x1="32.251034"
       y1="6.1317081"
       x2="32.251034"
       y2="90.238609"
       id="linearGradient3725"
       xlink:href="#ButtonShadow-0"
       gradientUnits="userSpaceOnUse"
       gradientTransform="matrix(1.0238095,0,0,1.0119048,-1.1428571,-98.071429)" />
    <linearGradient
       x1="32.251034"
       y1="6.1317081"
       x2="32.251034"
       y2="90.238609"
       id="linearGradient3721"
       xlink:href="#ButtonShadow-0"
       gradientUnits="userSpaceOnUse"
       gradientTransform="translate(0,-97)" />
    <linearGradient
       x1="32.251034"
       y1="6.1317081"
       x2="32.251034"
       y2="90.238609"
       id="linearGradient3026"
       xlink:href="#ButtonShadow-0"
       gradientUnits="userSpaceOnUse"
       gradientTransform="matrix(1.0238095,0,0,1.0119048,-1.1428571,-98.071429)" />
    <linearGradient
       id="linearGradient4081">
      <stop
         id="stop4083"
         style="stop-color:#8c8c8c;stop-opacity:1"
         offset="0" />
      <stop
         id="stop4085"
         style="stop-color:#dcdcdc;stop-opacity:1"
         offset="1" />
    </linearGradient>
    <linearGradient
       id="linearGradient4281-6">
      <stop
         id="stop4283-9"
         style="stop-color:#1e1e1e;stop-opacity:1"
         offset="0" />
      <stop
         id="stop4285-8"
         style="stop-color:#505050;stop-opacity:1"
         offset="1" />
    </linearGradient>
    <linearGradient
       x1="48"
       y1="16"
       x2="48"
       y2="80"
       id="linearGradient4416"
       xlink:href="#linearGradient4281-6"
       gradientUnits="userSpaceOnUse" />
    <clipPath
       id="clipPath4194-1">
      <rect
         width="84"
         height="84"
         rx="6"
         ry="6"
         x="6"
         y="6"
         id="rect4196-1"
         style="fill:#ff00ff;fill-opacity:1;fill-rule:nonzero;stroke:none" />
    </clipPath>
    <linearGradient
       x1="48.233639"
       y1="48.047016"
       x2="126.13924"
       y2="66.232674"
       id="linearGradient4077-0"
       xlink:href="#linearGradient4071-3"
       gradientUnits="userSpaceOnUse" />
    <linearGradient
       id="linearGradient4071-3">
      <stop
         id="stop4073-8"
         style="stop-color:#000000;stop-opacity:1"
         offset="0" />
      <stop
         id="stop4075-4"
         style="stop-color:#000000;stop-opacity:0"
         offset="1" />
    </linearGradient>
    <linearGradient
       x1="48.055065"
       y1="48.031517"
       x2="126.67282"
       y2="62.838562"
       id="linearGradient4069-9"
       xlink:href="#linearGradient4047-2"
       gradientUnits="userSpaceOnUse" />
    <linearGradient
       id="linearGradient4047-2">
      <stop
         id="stop4049-0"
         style="stop-color:#000000;stop-opacity:1"
         offset="0" />
      <stop
         id="stop4051-5"
         style="stop-color:#000000;stop-opacity:0"
         offset="1" />
    </linearGradient>
    <linearGradient
       x1="47.997307"
       y1="48.028725"
       x2="127.05216"
       y2="60.289631"
       id="linearGradient4061-6"
       xlink:href="#linearGradient4047-2"
       gradientUnits="userSpaceOnUse" />
    <linearGradient
       x1="47.99826"
       y1="48.028797"
       x2="127.41583"
       y2="57.664623"
       id="linearGradient4053-2"
       xlink:href="#linearGradient4047-2"
       gradientUnits="userSpaceOnUse" />
    <linearGradient
       x1="48.233643"
       y1="48.04702"
       x2="126.13924"
       y2="66.232674"
       id="linearGradient4145-0"
       xlink:href="#linearGradient4115-2"
       gradientUnits="userSpaceOnUse" />
    <linearGradient
       id="linearGradient4115-2">
      <stop
         id="stop4117-3"
         style="stop-color:#ffffff;stop-opacity:1"
         offset="0" />
      <stop
         id="stop4119-6"
         style="stop-color:#ffffff;stop-opacity:0"
         offset="1" />
    </linearGradient>
    <linearGradient
       x1="48.055069"
       y1="48.031521"
       x2="126.67282"
       y2="62.838566"
       id="linearGradient4137-7"
       xlink:href="#linearGradient4115-2"
       gradientUnits="userSpaceOnUse" />
    <linearGradient
       x1="47.997311"
       y1="48.028728"
       x2="127.05216"
       y2="60.289635"
       id="linearGradient4129-8"
       xlink:href="#linearGradient4115-2"
       gradientUnits="userSpaceOnUse" />
    <linearGradient
       x1="47.998264"
       y1="48.028801"
       x2="127.41583"
       y2="57.664627"
       id="linearGradient4121-6"
       xlink:href="#linearGradient4115-2"
       gradientUnits="userSpaceOnUse" />
    <linearGradient
       x1="48.233639"
       y1="48.047016"
       x2="126.13924"
       y2="66.232674"
       id="linearGradient4089-7"
       xlink:href="#linearGradient4071-3"
       gradientUnits="userSpaceOnUse" />
    <linearGradient
       x1="48.055065"
       y1="48.031517"
       x2="126.67282"
       y2="62.838562"
       id="linearGradient4091-0"
       xlink:href="#linearGradient4047-2"
       gradientUnits="userSpaceOnUse" />
    <linearGradient
       x1="47.997307"
       y1="48.028725"
       x2="127.05216"
       y2="60.289631"
       id="linearGradient4093-5"
       xlink:href="#linearGradient4047-2"
       gradientUnits="userSpaceOnUse" />
    <linearGradient
       x1="47.99826"
       y1="48.028797"
       x2="127.41583"
       y2="57.664623"
       id="linearGradient4095-8"
       xlink:href="#linearGradient4047-2"
       gradientUnits="userSpaceOnUse" />
    <linearGradient
       x1="48.233639"
       y1="48.047016"
       x2="126.13924"
       y2="66.232674"
       id="linearGradient4107-8"
       xlink:href="#linearGradient4071-3"
       gradientUnits="userSpaceOnUse" />
    <linearGradient
       x1="48.055065"
       y1="48.031517"
       x2="126.67282"
       y2="62.838562"
       id="linearGradient4109-3"
       xlink:href="#linearGradient4047-2"
       gradientUnits="userSpaceOnUse" />
    <linearGradient
       x1="47.997307"
       y1="48.028725"
       x2="127.05216"
       y2="60.289631"
       id="linearGradient4111-3"
       xlink:href="#linearGradient4047-2"
       gradientUnits="userSpaceOnUse" />
    <linearGradient
       x1="47.99826"
       y1="48.028797"
       x2="127.41583"
       y2="57.664623"
       id="linearGradient4113-5"
       xlink:href="#linearGradient4047-2"
       gradientUnits="userSpaceOnUse" />
    <linearGradient
       x1="48.233643"
       y1="48.04702"
       x2="126.13924"
       y2="66.232674"
       id="linearGradient4157-8"
       xlink:href="#linearGradient4115-2"
       gradientUnits="userSpaceOnUse" />
    <linearGradient
       x1="48.055069"
       y1="48.031521"
       x2="126.67282"
       y2="62.838566"
       id="linearGradient4159-8"
       xlink:href="#linearGradient4115-2"
       gradientUnits="userSpaceOnUse" />
    <linearGradient
       x1="47.997311"
       y1="48.028728"
       x2="127.05216"
       y2="60.289635"
       id="linearGradient4161-2"
       xlink:href="#linearGradient4115-2"
       gradientUnits="userSpaceOnUse" />
    <linearGradient
       x1="47.998264"
       y1="48.028801"
       x2="127.41583"
       y2="57.664627"
       id="linearGradient4163-3"
       xlink:href="#linearGradient4115-2"
       gradientUnits="userSpaceOnUse" />
    <radialGradient
       cx="48"
       cy="90.171875"
       r="42"
       fx="48"
       fy="90.171875"
       id="radialGradient3619-8"
       xlink:href="#linearGradient3737-6"
       gradientUnits="userSpaceOnUse"
       gradientTransform="matrix(1.1573129,0,0,0.99590774,-7.551021,0.1971319)" />
    <linearGradient
       id="linearGradient3737-6">
      <stop
         id="stop3739-9"
         style="stop-color:#ffffff;stop-opacity:1"
         offset="0" />
      <stop
         id="stop3741-6"
         style="stop-color:#ffffff;stop-opacity:0"
         offset="1" />
    </linearGradient>
    <linearGradient
       x1="36.357143"
       y1="6"
       x2="36.357143"
       y2="63.893143"
       id="linearGradient3047"
       xlink:href="#linearGradient3737-6"
       gradientUnits="userSpaceOnUse" />
    <radialGradient
       cx="48.410488"
       cy="47.59774"
       r="30.640047"
       fx="48.410488"
       fy="47.59774"
       id="radialGradient3814-9"
       xlink:href="#linearGradient3796-9"
       gradientUnits="userSpaceOnUse"
       gradientTransform="matrix(1,0,0,0.98495914,-30,0.71591078)" />
    <linearGradient
       id="linearGradient3796-9">
      <stop
         id="stop3798-4"
         style="stop-color:#ffffff;stop-opacity:0"
         offset="0" />
      <stop
         id="stop3800-9"
         style="stop-color:#ffffff;stop-opacity:1"
         offset="1" />
    </linearGradient>
    <linearGradient
       id="linearGradient3780-6-5">
      <stop
         id="stop3782-4"
         style="stop-color:#000000;stop-opacity:0"
         offset="0" />
      <stop
         id="stop3784-9"
         style="stop-color:#000000;stop-opacity:1"
         offset="1" />
    </linearGradient>
    <radialGradient
       cx="48.265148"
       cy="47.886696"
       r="28.878813"
       fx="48.265148"
       fy="47.886696"
       id="radialGradient5008"
       xlink:href="#linearGradient3780-6-5"
       gradientUnits="userSpaceOnUse"
       gradientTransform="matrix(1,0,0,1.013812,-30,-0.66140908)" />
    <radialGradient
       gradientTransform="matrix(1,0,0,1.013812,-30,-0.66140908)"
       gradientUnits="userSpaceOnUse"
       xlink:href="#linearGradient3780-6-5-0"
       id="radialGradient5008-5"
       fy="47.886696"
       fx="48.265148"
       r="28.878813"
       cy="47.886696"
       cx="48.265148" />
    <linearGradient
       id="linearGradient3780-6-5-0">
      <stop
         offset="0"
         style="stop-color:#000000;stop-opacity:0"
         id="stop3782-4-1" />
      <stop
         offset="1"
         style="stop-color:#000000;stop-opacity:1"
         id="stop3784-9-7" />
    </linearGradient>
    <linearGradient
       id="linearGradient3796-9-5">
      <stop
         offset="0"
         style="stop-color:#ffffff;stop-opacity:0"
         id="stop3798-4-9" />
      <stop
         offset="1"
         style="stop-color:#ffffff;stop-opacity:1"
         id="stop3800-9-4" />
    </linearGradient>
    <radialGradient
       gradientTransform="matrix(1,0,0,0.98495914,-30,0.71591078)"
       gradientUnits="userSpaceOnUse"
       xlink:href="#linearGradient3796-9-5"
       id="radialGradient3814-9-1"
       fy="47.59774"
       fx="48.410488"
       r="30.640047"
       cy="47.59774"
       cx="48.410488" />
    <linearGradient
       gradientUnits="userSpaceOnUse"
       xlink:href="#linearGradient3737-6-4"
       id="linearGradient3047-0"
       y2="63.893143"
       x2="36.357143"
       y1="6"
       x1="36.357143" />
    <linearGradient
       id="linearGradient3737-6-4">
      <stop
         offset="0"
         style="stop-color:#ffffff;stop-opacity:1"
         id="stop3739-9-5" />
      <stop
         offset="1"
         style="stop-color:#ffffff;stop-opacity:0"
         id="stop3741-6-5" />
    </linearGradient>
    <radialGradient
       gradientTransform="matrix(1.1573129,0,0,0.99590774,-7.551021,0.1971319)"
       gradientUnits="userSpaceOnUse"
       xlink:href="#linearGradient3737-6-4"
       id="radialGradient3619-8-9"
       fy="90.171875"
       fx="48"
       r="42"
       cy="90.171875"
       cx="48" />
    <linearGradient
       gradientUnits="userSpaceOnUse"
       xlink:href="#linearGradient4115-2-2"
       id="linearGradient4163-3-1"
       y2="57.664627"
       x2="127.41583"
       y1="48.028801"
       x1="47.998264" />
    <linearGradient
       gradientUnits="userSpaceOnUse"
       xlink:href="#linearGradient4115-2-2"
       id="linearGradient4161-2-2"
       y2="60.289635"
       x2="127.05216"
       y1="48.028728"
       x1="47.997311" />
    <linearGradient
       gradientUnits="userSpaceOnUse"
       xlink:href="#linearGradient4115-2-2"
       id="linearGradient4159-8-0"
       y2="62.838566"
       x2="126.67282"
       y1="48.031521"
       x1="48.055069" />
    <linearGradient
       gradientUnits="userSpaceOnUse"
       xlink:href="#linearGradient4115-2-2"
       id="linearGradient4157-8-2"
       y2="66.232674"
       x2="126.13924"
       y1="48.04702"
       x1="48.233643" />
    <linearGradient
       gradientUnits="userSpaceOnUse"
       xlink:href="#linearGradient4047-2-9"
       id="linearGradient4113-5-7"
       y2="57.664623"
       x2="127.41583"
       y1="48.028797"
       x1="47.99826" />
    <linearGradient
       gradientUnits="userSpaceOnUse"
       xlink:href="#linearGradient4047-2-9"
       id="linearGradient4111-3-4"
       y2="60.289631"
       x2="127.05216"
       y1="48.028725"
       x1="47.997307" />
    <linearGradient
       gradientUnits="userSpaceOnUse"
       xlink:href="#linearGradient4047-2-9"
       id="linearGradient4109-3-1"
       y2="62.838562"
       x2="126.67282"
       y1="48.031517"
       x1="48.055065" />
    <linearGradient
       gradientUnits="userSpaceOnUse"
       xlink:href="#linearGradient4071-3-4"
       id="linearGradient4107-8-4"
       y2="66.232674"
       x2="126.13924"
       y1="48.047016"
       x1="48.233639" />
    <linearGradient
       gradientUnits="userSpaceOnUse"
       xlink:href="#linearGradient4047-2-9"
       id="linearGradient4095-8-8"
       y2="57.664623"
       x2="127.41583"
       y1="48.028797"
       x1="47.99826" />
    <linearGradient
       gradientUnits="userSpaceOnUse"
       xlink:href="#linearGradient4047-2-9"
       id="linearGradient4093-5-8"
       y2="60.289631"
       x2="127.05216"
       y1="48.028725"
       x1="47.997307" />
    <linearGradient
       gradientUnits="userSpaceOnUse"
       xlink:href="#linearGradient4047-2-9"
       id="linearGradient4091-0-8"
       y2="62.838562"
       x2="126.67282"
       y1="48.031517"
       x1="48.055065" />
    <linearGradient
       gradientUnits="userSpaceOnUse"
       xlink:href="#linearGradient4071-3-4"
       id="linearGradient4089-7-0"
       y2="66.232674"
       x2="126.13924"
       y1="48.047016"
       x1="48.233639" />
    <linearGradient
       gradientUnits="userSpaceOnUse"
       xlink:href="#linearGradient4115-2-2"
       id="linearGradient4121-6-5"
       y2="57.664627"
       x2="127.41583"
       y1="48.028801"
       x1="47.998264" />
    <linearGradient
       gradientUnits="userSpaceOnUse"
       xlink:href="#linearGradient4115-2-2"
       id="linearGradient4129-8-2"
       y2="60.289635"
       x2="127.05216"
       y1="48.028728"
       x1="47.997311" />
    <linearGradient
       gradientUnits="userSpaceOnUse"
       xlink:href="#linearGradient4115-2-2"
       id="linearGradient4137-7-4"
       y2="62.838566"
       x2="126.67282"
       y1="48.031521"
       x1="48.055069" />
    <linearGradient
       id="linearGradient4115-2-2">
      <stop
         offset="0"
         style="stop-color:#ffffff;stop-opacity:1"
         id="stop4117-3-7" />
      <stop
         offset="1"
         style="stop-color:#ffffff;stop-opacity:0"
         id="stop4119-6-2" />
    </linearGradient>
    <linearGradient
       gradientUnits="userSpaceOnUse"
       xlink:href="#linearGradient4115-2-2"
       id="linearGradient4145-0-4"
       y2="66.232674"
       x2="126.13924"
       y1="48.04702"
       x1="48.233643" />
    <linearGradient
       gradientUnits="userSpaceOnUse"
       xlink:href="#linearGradient4047-2-9"
       id="linearGradient4053-2-3"
       y2="57.664623"
       x2="127.41583"
       y1="48.028797"
       x1="47.99826" />
    <linearGradient
       gradientUnits="userSpaceOnUse"
       xlink:href="#linearGradient4047-2-9"
       id="linearGradient4061-6-9"
       y2="60.289631"
       x2="127.05216"
       y1="48.028725"
       x1="47.997307" />
    <linearGradient
       id="linearGradient4047-2-9">
      <stop
         offset="0"
         style="stop-color:#000000;stop-opacity:1"
         id="stop4049-0-1" />
      <stop
         offset="1"
         style="stop-color:#000000;stop-opacity:0"
         id="stop4051-5-3" />
    </linearGradient>
    <linearGradient
       gradientUnits="userSpaceOnUse"
       xlink:href="#linearGradient4047-2-9"
       id="linearGradient4069-9-7"
       y2="62.838562"
       x2="126.67282"
       y1="48.031517"
       x1="48.055065" />
    <linearGradient
       id="linearGradient4071-3-4">
      <stop
         offset="0"
         style="stop-color:#000000;stop-opacity:1"
         id="stop4073-8-4" />
      <stop
         offset="1"
         style="stop-color:#000000;stop-opacity:0"
         id="stop4075-4-5" />
    </linearGradient>
    <linearGradient
       gradientUnits="userSpaceOnUse"
       xlink:href="#linearGradient4071-3-4"
       id="linearGradient4077-0-4"
       y2="66.232674"
       x2="126.13924"
       y1="48.047016"
       x1="48.233639" />
    <clipPath
       id="clipPath4194-1-9">
      <rect
         style="fill:#ff00ff;fill-opacity:1;fill-rule:nonzero;stroke:none"
         id="rect4196-1-2"
         y="6"
         x="6"
         ry="6"
         rx="6"
         height="84"
         width="84" />
    </clipPath>
    <linearGradient
       gradientTransform="matrix(0,1,-1,0,95.99578,0.00422008)"
       gradientUnits="userSpaceOnUse"
       xlink:href="#linearGradient4281-6-1"
       id="linearGradient4416-6"
       y2="47.995781"
       x2="79.995781"
       y1="47.995781"
       x1="15.99578" />
    <linearGradient
       id="linearGradient4281-6-1">
      <stop
         offset="0"
         style="stop-color:#1e1e1e;stop-opacity:1"
         id="stop4283-9-3" />
      <stop
         offset="1"
         style="stop-color:#505050;stop-opacity:1"
         id="stop4285-8-3" />
    </linearGradient>
    <linearGradient
       id="linearGradient4081-1">
      <stop
         offset="0"
         style="stop-color:#8c8c8c;stop-opacity:1"
         id="stop4083-6" />
      <stop
         offset="1"
         style="stop-color:#dcdcdc;stop-opacity:1"
         id="stop4085-3" />
    </linearGradient>
    <linearGradient
       gradientTransform="matrix(1.0238095,0,0,1.0119048,-1.1428571,-98.071429)"
       gradientUnits="userSpaceOnUse"
       xlink:href="#ButtonShadow-0-0"
       id="linearGradient3026-3"
       y2="90.238609"
       x2="32.251034"
       y1="6.1317081"
       x1="32.251034" />
    <linearGradient
       gradientTransform="translate(0,-97)"
       gradientUnits="userSpaceOnUse"
       xlink:href="#ButtonShadow-0-0"
       id="linearGradient3721-8"
       y2="90.238609"
       x2="32.251034"
       y1="6.1317081"
       x1="32.251034" />
    <linearGradient
       gradientTransform="matrix(1.0238095,0,0,1.0119048,-1.1428571,-98.071429)"
       gradientUnits="userSpaceOnUse"
       xlink:href="#ButtonShadow-0-0"
       id="linearGradient3725-3"
       y2="90.238609"
       x2="32.251034"
       y1="6.1317081"
       x1="32.251034" />
    <linearGradient
       gradientTransform="matrix(1.0238095,0,0,1.0119048,-1.1428571,-98.071429)"
       gradientUnits="userSpaceOnUse"
       xlink:href="#ButtonShadow-0-0"
       id="linearGradient3772-6"
       y2="90.238609"
       x2="32.251034"
       y1="6.1317081"
       x1="32.251034" />
    <linearGradient
       gradientTransform="matrix(1.0238095,0,0,1.0119048,-1.1428571,-98.071429)"
       gradientUnits="userSpaceOnUse"
       xlink:href="#ButtonShadow-0-0"
       id="linearGradient3780-6"
       y2="90.238609"
       x2="32.251034"
       y1="6.1317081"
       x1="32.251034" />
    <linearGradient
       gradientTransform="matrix(1.0058652,0,0,0.994169,100,0)"
       gradientUnits="userSpaceOnUse"
       id="ButtonShadow-0-0"
       y2="7.0165396"
       x2="45.447727"
       y1="92.539597"
       x1="45.447727">
      <stop
         offset="0"
         style="stop-color:#000000;stop-opacity:1"
         id="stop3750-8-3" />
      <stop
         offset="1"
         style="stop-color:#000000;stop-opacity:0.58823532"
         id="stop3752-5-3" />
    </linearGradient>
    <linearGradient
       gradientUnits="userSpaceOnUse"
       xlink:href="#linearGradient4081-1"
       id="linearGradient3617-6"
       y2="5.9877172"
       x2="48"
       y1="90"
       x1="48" />
    <clipPath
       id="clipPath3613-0">
      <rect
         style="fill:#ffffff;fill-opacity:1;fill-rule:nonzero;stroke:none"
         id="rect3615-4"
         y="6"
         x="6"
         ry="6"
         rx="6"
         height="84"
         width="84" />
    </clipPath>
    <radialGradient
       gradientTransform="matrix(1.1573129,0,0,0.99590774,-7.5510206,0.19713193)"
       gradientUnits="userSpaceOnUse"
       xlink:href="#linearGradient3737-2"
       id="radialGradient3619-9"
       fy="90.171875"
       fx="48"
       r="42"
       cy="90.171875"
       cx="48" />
    <linearGradient
       gradientUnits="userSpaceOnUse"
       xlink:href="#linearGradient3737-2"
       id="linearGradient3613-9"
       y2="138.66119"
       x2="48"
       y1="20.220806"
       x1="48" />
    <filter
       id="filter3794-4"
       color-interpolation-filters="sRGB"
       height="1.3839999"
       width="1.3839999"
       y="-0.192"
       x="-0.192">
      <feGaussianBlur
         stdDeviation="5.28"
         id="feGaussianBlur3796-8" />
    </filter>
    <linearGradient
       gradientUnits="userSpaceOnUse"
       xlink:href="#linearGradient3737-2"
       id="linearGradient3188-6"
       y2="63.893143"
       x2="36.357143"
       y1="6"
       x1="36.357143" />
    <filter
       id="filter3174-3"
       color-interpolation-filters="sRGB">
      <feGaussianBlur
         stdDeviation="1.71"
         id="feGaussianBlur3176-5" />
    </filter>
    <linearGradient
       id="linearGradient3737-2">
      <stop
         offset="0"
         style="stop-color:#ffffff;stop-opacity:1"
         id="stop3739-2" />
      <stop
         offset="1"
         style="stop-color:#ffffff;stop-opacity:0"
         id="stop3741-9" />
    </linearGradient>
    <linearGradient
       gradientTransform="scale(1.0058652,0.994169)"
       gradientUnits="userSpaceOnUse"
       id="ButtonShadow-6"
       y2="7.0165396"
       x2="45.447727"
       y1="92.539597"
       x1="45.447727">
      <stop
         offset="0"
         style="stop-color:#000000;stop-opacity:1"
         id="stop3750-9" />
      <stop
         offset="1"
         style="stop-color:#000000;stop-opacity:0.58823532"
         id="stop3752-8" />
    </linearGradient>
    <linearGradient
       inkscape:collect="always"
       xlink:href="#linearGradient3737-6-4"
       id="linearGradient3263"
       gradientUnits="userSpaceOnUse"
       x1="36.357143"
       y1="6"
       x2="36.357143"
       y2="63.893143"
       gradientTransform="matrix(0.25325463,0,0,0.25325463,0.05721643,-0.44280299)" />
    <linearGradient
       inkscape:collect="always"
       xlink:href="#linearGradient3737-2"
       id="linearGradient3266"
       gradientUnits="userSpaceOnUse"
       x1="36.357143"
       y1="6"
       x2="36.357143"
       y2="63.893143"
       gradientTransform="matrix(0.25325463,0,0,0.25325463,0.05721643,-0.44280299)" />
    <radialGradient
       inkscape:collect="always"
       xlink:href="#linearGradient3737-2"
       id="radialGradient3269"
       gradientUnits="userSpaceOnUse"
       gradientTransform="matrix(0.29309485,0,0,0.25221825,-1.8551145,-0.39287842)"
       cx="48"
       cy="90.171875"
       fx="48"
       fy="90.171875"
       r="42" />
    <linearGradient
       inkscape:collect="always"
       xlink:href="#linearGradient3737-2"
       id="linearGradient3344"
       gradientUnits="userSpaceOnUse"
       x1="48"
       y1="20.220806"
       x2="48"
       y2="138.66119" />
    <linearGradient
       inkscape:collect="always"
       xlink:href="#ButtonShadow-6"
       id="linearGradient3378"
       gradientUnits="userSpaceOnUse"
       gradientTransform="scale(1.0058652,0.994169)"
       x1="45.447727"
       y1="92.539597"
       x2="45.447727"
       y2="7.0165396" />
  </defs>
  <metadata
     id="metadata2413">
    <rdf:RDF>
      <cc:Work
         rdf:about="">
        <dc:format>image/svg+xml</dc:format>
        <dc:type
           rdf:resource="http://purl.org/dc/dcmitype/StillImage" />
        <dc:title></dc:title>
      </cc:Work>
    </rdf:RDF>
  </metadata>
  <g
     id="layer2"
     style="display:none"
     transform="translate(0,-72)">
    <rect
       width="86"
       height="85"
       rx="6"
       ry="6"
       x="5"
       y="7"
       id="rect3745"
       style="opacity:0.9;fill:url(#ButtonShadow);fill-opacity:1;fill-rule:nonzero;stroke:none;filter:url(#filter3174)" />
  </g>
  <rect
     style="opacity:0.9;fill:url(#linearGradient3378);fill-opacity:1;fill-rule:nonzero;stroke:none;display:none;filter:url(#filter3174-3)"
     id="rect3745-7"
     y="7"
     x="5"
     ry="6"
     rx="6"
     height="85"
     width="86"
     transform="matrix(0.25325463,0,0,0.25325463,0.05721643,-0.44280299)" />
  <path
     style="opacity:0.25;fill:url(#radialGradient3269);fill-opacity:1;fill-rule:nonzero;stroke:none;display:none"
     id="path3615"
     inkscape:connector-curvature="0"
     d="m 3.096272,22.350114 c -0.8418184,0 -1.5195278,-0.67771 -1.5195278,-1.519528 l 0,-0.506509 0,-17.2213152 0,-0.5065092 c 0,-0.08477 0.010472,-0.1647928 0.023743,-0.2453405 0.012333,-0.074861 0.024576,-0.1511714 0.047485,-0.2215978 0.0025,-0.00769 0.00529,-0.016107 0.00791,-0.023743 C 1.6809243,2.0326924 1.7153708,1.966927 1.7508568,1.8998023 1.7874753,1.8305354 1.830788,1.7641554 1.8774841,1.7019472 1.9241802,1.639739 1.9721447,1.5820382 2.027854,1.5278346 2.1392726,1.4194274 2.2666503,1.3215521 2.407736,1.2508373 2.4782788,1.21548 2.5529707,1.1882969 2.6293338,1.1637811 2.5644495,1.1891628 2.506072,1.223618 2.447307,1.2587516 c -0.00188,0.00111 -0.00604,-0.00114 -0.00791,0 -0.00809,0.00489 -0.015776,0.010766 -0.023743,0.015828 -0.030491,0.019425 -0.058508,0.04141 -0.087056,0.063314 -0.026889,0.020463 -0.054014,0.040802 -0.079142,0.063314 -0.045062,0.040884 -0.087996,0.087471 -0.1266273,0.1345415 -0.027245,0.032988 -0.055309,0.067185 -0.079142,0.1028847 -0.00635,0.00972 -0.00974,0.021747 -0.015828,0.031657 -0.016402,0.026093 -0.032981,0.051795 -0.047485,0.079142 -0.025581,0.04931 -0.052088,0.1052782 -0.071228,0.1582841 -0.00202,0.00552 -0.00597,0.010269 -0.00791,0.015829 -0.00806,0.023287 -0.00907,0.047316 -0.015828,0.071228 -0.00768,0.027002 -0.017827,0.051419 -0.023743,0.079142 -0.018457,0.086489 -0.031657,0.1768236 -0.031657,0.269083 l 0,0.5065093 0,17.2213148 0,0.506509 c 0,0.704516 0.5617572,1.266273 1.2662732,1.266273 l 0.5065092,0 17.2213148,0 0.506509,0 c 0.704516,0 1.266273,-0.561757 1.266273,-1.266273 l 0,-0.506509 0,-17.2213148 0,-0.5065093 c 0,-0.092259 -0.0132,-0.1825935 -0.03166,-0.269083 -0.01118,-0.052397 -0.02238,-0.1007087 -0.03957,-0.1503699 -0.002,-0.00556 -0.0059,-0.010305 -0.0079,-0.015829 -0.01589,-0.044 -0.03505,-0.093058 -0.0554,-0.1345415 -0.01053,-0.020969 -0.02002,-0.043042 -0.03166,-0.063314 -0.01383,-0.024619 -0.03211,-0.047701 -0.04748,-0.071228 -0.02383,-0.0357 -0.0519,-0.069897 -0.07914,-0.1028847 -0.03626,-0.04418 -0.07677,-0.087879 -0.118713,-0.1266273 -0.0028,-0.00258 -0.0051,-0.00536 -0.0079,-0.00791 -0.03505,-0.031798 -0.0722,-0.059372 -0.110799,-0.087056 -0.02598,-0.018526 -0.05175,-0.03884 -0.07914,-0.055399 -0.0019,-0.00114 -0.006,0.00111 -0.0079,0 -0.05876,-0.035134 -0.117142,-0.069589 -0.182026,-0.094971 0.07636,0.024515 0.151055,0.051699 0.221597,0.087056 0.141086,0.070715 0.268464,0.1685901 0.379882,0.2769973 0.05571,0.054204 0.103674,0.1119044 0.15037,0.1741126 0.0467,0.062208 0.09001,0.1285882 0.126628,0.1978551 0.03549,0.067125 0.06993,0.1328901 0.09497,0.2057694 0.0026,0.0078 0.0054,0.015889 0.0079,0.023743 0.02291,0.070426 0.03515,0.1467368 0.04749,0.2215978 0.01327,0.080548 0.02374,0.1605708 0.02374,0.2453405 l 0,0.5065092 0,17.2213152 0,0.506509 c 0,0.841818 -0.677709,1.519528 -1.519528,1.519528 l -18.234333,0 z" />
  <path
     style="opacity:0.5;fill:url(#linearGradient3266);fill-opacity:1;fill-rule:nonzero;stroke:none;display:none"
     id="rect3728"
     inkscape:connector-curvature="0"
     d="m 3.096272,1.0767248 c -0.8418184,0 -1.5195278,0.6777094 -1.5195278,1.5195278 l 0,0.5065092 0,17.2213152 0,0.506509 c 0,0.08477 0.010472,0.164793 0.023743,0.24534 0.012333,0.07486 0.024576,0.151172 0.047485,0.221598 0.00251,0.0077 0.00529,0.01611 0.00791,0.02374 0.025037,0.07288 0.059484,0.138645 0.094971,0.205769 0.036619,0.06927 0.079931,0.135647 0.1266273,0.197855 0.046696,0.06221 0.094661,0.119909 0.1503699,0.174113 0.1114186,0.108407 0.2387963,0.206282 0.379882,0.276997 0.070543,0.03536 0.1452347,0.06254 0.2215978,0.08706 -0.064884,-0.02538 -0.1232618,-0.05984 -0.1820268,-0.09497 -0.00187,-0.0011 -0.00605,0.0011 -0.00791,0 -0.00809,-0.0049 -0.015775,-0.01077 -0.023743,-0.01583 -0.030491,-0.01943 -0.058508,-0.04141 -0.087056,-0.06331 -0.026889,-0.02046 -0.054014,-0.0408 -0.079142,-0.06331 -0.045062,-0.04088 -0.087996,-0.08747 -0.1266273,-0.134541 -0.027245,-0.03299 -0.055309,-0.06718 -0.079142,-0.102885 -0.00635,-0.0097 -0.00974,-0.02175 -0.015828,-0.03166 -0.016401,-0.02609 -0.032981,-0.05179 -0.047485,-0.07914 -0.025581,-0.04931 -0.052088,-0.105278 -0.071228,-0.158284 -0.00203,-0.0055 -0.00597,-0.01027 -0.00791,-0.01583 -0.00806,-0.02329 -0.00907,-0.04732 -0.015828,-0.07123 -0.00768,-0.027 -0.017826,-0.05142 -0.023743,-0.07914 -0.018457,-0.08649 -0.031657,-0.176824 -0.031657,-0.269083 l 0,-0.50651 0,-17.2213145 0,-0.5065093 c 0,-0.7045159 0.5617573,-1.2662732 1.2662732,-1.2662732 l 0.5065092,0 17.2213148,0 0.506509,0 c 0.704517,0 1.266273,0.5617573 1.266273,1.2662732 l 0,0.5065093 0,17.2213145 0,0.50651 c 0,0.09226 -0.01319,0.182593 -0.03166,0.269083 -0.01119,0.0524 -0.02239,0.100708 -0.03957,0.15037 -0.002,0.0056 -0.0059,0.0103 -0.0079,0.01583 -0.01588,0.044 -0.03505,0.09306 -0.0554,0.134541 -0.01054,0.02097 -0.02001,0.04304 -0.03166,0.06331 -0.01383,0.02462 -0.03211,0.0477 -0.04749,0.07123 -0.02383,0.0357 -0.0519,0.0699 -0.07914,0.102885 -0.03626,0.04418 -0.07677,0.08788 -0.118713,0.126627 -0.0028,0.0026 -0.0051,0.0054 -0.0079,0.0079 -0.03505,0.0318 -0.0722,0.05937 -0.110799,0.08706 -0.02598,0.01853 -0.05175,0.03884 -0.07914,0.0554 -0.0018,0.0011 -0.006,-0.0011 -0.0079,0 -0.05876,0.03513 -0.117143,0.06959 -0.182026,0.09497 0.07636,-0.02452 0.151056,-0.0517 0.221597,-0.08706 0.141086,-0.07071 0.268463,-0.16859 0.379882,-0.276997 0.05571,-0.0542 0.103675,-0.111904 0.15037,-0.174113 0.0467,-0.06221 0.09001,-0.128588 0.126628,-0.197855 0.03549,-0.06712 0.06993,-0.13289 0.09497,-0.205769 0.0026,-0.0078 0.0054,-0.01589 0.0079,-0.02374 0.02292,-0.07043 0.03515,-0.146737 0.04748,-0.221598 0.01325,-0.08055 0.02372,-0.16057 0.02372,-0.24534 l 0,-0.506509 0,-17.2213152 0,-0.5065092 c 0,-0.8418184 -0.677709,-1.5195278 -1.519528,-1.5195278 l -18.234333,0 z" />
  <g
     id="g3377">
    <path
       d="m 41.44852,7.787973 c -0.627638,-1.767388 -2.307735,-3.039056 -4.2895,-3.039056 -2.516339,0 -4.558584,2.042246 -4.558584,4.558584 0,2.516338 2.042246,4.558583 4.558584,4.558583 1.981765,0 3.661862,-1.271667 4.2895,-3.039056 l -1.092161,0 c -0.56975,1.196006 -1.784325,2.026037 -3.197339,2.026037 -1.958162,0 -3.545565,-1.587402 -3.545565,-3.545564 0,-1.958163 1.587403,-3.545565 3.545565,-3.545565 1.413014,0 2.627589,0.830032 3.197339,2.026037 l 1.092161,0 z m 1.028847,1.013018 -3.545565,0 0,1.013019 3.545565,0 0,-1.013019 z"
       inkscape:connector-curvature="0"
       id="path3122"
       style="opacity:0.9;fill:#ffffff;fill-opacity:1;stroke:none;display:inline;filter:url(#filter4022)" />
    <path
       d="m 20.316518,11.714488 c 0,-0.561212 -0.451806,-1.013019 -1.013018,-1.013019 l -6.078112,0 c -0.561212,0 -1.013018,0.451807 -1.013018,1.013019 0,0.561212 0.451806,1.013019 1.013018,1.013019 l 6.078112,0 c 0.561212,0 1.013018,-0.451807 1.013018,-1.013019 z m -1.820268,2.959913 a 1.0131198,1.0131198 0 0 0 -1.899409,-0.427367 c -1.404686,2.432988 -4.48403,3.256611 -6.9170174,1.851925 C 7.2468358,14.694273 6.423213,11.61493 7.8278992,9.1819417 9.2325853,6.7489538 12.311928,5.925331 14.744916,7.3300172 15.514952,7.7745979 16.15226,8.4119055 16.596841,9.1819417 A 1.0140382,1.0140382 0 0 0 18.353795,8.1689232 C 17.731444,7.0909798 16.835878,6.1954139 15.757935,5.5730632 12.376691,3.6209013 8.0231071,4.7876796 6.0709452,8.1689232 4.1187833,11.550167 5.2855615,15.903751 8.6668051,17.855913 c 3.3812439,1.952162 7.7348279,0.785383 9.6869899,-2.59586 a 1.0131198,1.0131198 0 0 0 0.142455,-0.585652 z"
       inkscape:connector-curvature="0"
       id="rect4223"
       style="color:#000000;fill:#ffffff;fill-opacity:1;stroke:none;stroke-width:6;marker:none;visibility:visible;display:inline;overflow:visible;enable-background:accumulate" />
  </g>
</svg>
